<?xml version="1.0" encoding="UTF-8"?>
<!DOCTYPE svg PUBLIC "-//W3C//DTD SVG 1.0//EN" "http://www.w3.org/TR/2001/REC-SVG-20010904/DTD/svg10.dtd">
<!-- Creator: CorelDRAW 2019 -->
<svg xmlns="http://www.w3.org/2000/svg" xml:space="preserve" width="9.2mm" height="9mm" version="1.0" style="shape-rendering:geometricPrecision; text-rendering:geometricPrecision; image-rendering:optimizeQuality; fill-rule:evenodd; clip-rule:evenodd"
viewBox="0 0 920 900"
 xmlns:xlink="http://www.w3.org/1999/xlink"
 xmlns:xodm="http://www.corel.com/coreldraw/odm/2003">
 <defs>
  <style type="text/css">
   <![CDATA[
    .fil2 {fill:url(#id0)}
    .fil0 {fill:url(#id1)}
    .fil1 {fill:url(#id2)}
   ]]>
  </style>
  <linearGradient id="id0" gradientUnits="userSpaceOnUse" x1="265.11" y1="453.99" x2="650.21" y2="453.99">
   <stop offset="0" style="stop-opacity:1; stop-color:#E65F9E"/>
   <stop offset="1" style="stop-opacity:1; stop-color:#E73F3F"/>
  </linearGradient>
  <radialGradient id="id1" gradientUnits="userSpaceOnUse" gradientTransform="matrix(0.0964567 -2.07315 -4.00133 -0.129416 4133 1956)" cx="434" cy="935" r="423.33" fx="434" fy="935">
   <stop offset="0" style="stop-opacity:1; stop-color:#ED2E38"/>
   <stop offset="1" style="stop-opacity:1; stop-color:#E60094"/>
  </radialGradient>
  <radialGradient id="id2" gradientUnits="userSpaceOnUse" gradientTransform="matrix(0.0964567 -2.07315 -4.00133 -0.129416 3968 1912)" cx="435.57" cy="893.27" r="423.33" fx="435.57" fy="893.27">
   <stop offset="0" style="stop-opacity:1; stop-color:#FFFDFD"/>
   <stop offset="1" style="stop-opacity:1; stop-color:white"/>
  </radialGradient>
 </defs>
 <g id="Слой_x0020_1">
  <metadata id="CorelCorpID_0Corel-Layer"/>
  <circle id="Эллипс" class="fil0" cx="452" cy="458" r="450"/>
  <circle id="Эллипс_0" class="fil1" cx="452" cy="458" r="410.63"/>
  <path class="fil2" d="M524.81 648.95c-13.21,-4.08 -28.52,-10.63 -41.96,-15.54 -12.41,-4.54 -26.33,-8.49 -35.96,-17.91 -26.33,-25.89 -50.62,-54.56 -76.69,-81.21 -22.46,-22.95 -49.28,-49.35 -69.34,-74 -10.68,-13.13 -17.71,-34.8 -24.47,-50.65 -13.37,-31.37 -11.61,-41.18 -10.57,-74.35 1.03,-32.55 9.96,-39.83 32.51,-61.87 14.96,-14.61 24.13,-17.64 45.27,-15.08 19.82,2.41 28.3,13.32 42.41,25.82 4.3,3.81 21.06,17.73 22.51,22.36 4.38,15.59 7.24,34.78 0.51,49.98 -13.75,31.07 -32.46,39.7 -4.81,71.22 11.25,12.81 22.94,24.38 34.26,37.67 13.97,16.4 27.63,33.05 41.55,49.5 22.89,27 29.29,9.61 54.19,-6.24 43.06,-27.42 49.65,-12.36 80.53,19.04 6.67,6.79 27.3,24.89 30.25,31.4 3.31,7.32 7.01,31.11 4.22,38.65 -3.12,8.4 -16.69,27.61 -24.37,32.83 -6.46,4.39 -33.23,18.33 -40.33,19.38 -6.89,1.02 -53.31,0.46 -59.71,-1z"/>
 </g>
</svg>
